<svg xmlns="http://www.w3.org/2000/svg" viewBox="0 0 64 64" width="64" height="64">
  <path fill="#666" d="M53.8 6.8H9.5C6 6.8 3 9.9 3 13.4V29c0 15.6 13.3 28.3 29 28.3S61 44.6 61 29V13.4c0-3.5-3.6-6.6-7.2-6.6" />
  <path fill="#fff" d="M13 29.4c0 10.4 8.3 18.7 18.9 18.7 10.5 0 18.9-8.5 18.9-18.9h-9.5c0 5.2-3.9 9.5-9.2 9.5-5.2 0-9.2-4.1-9.2-9.3v-9.1H13v9.1z"/>
  <path fill="#fff" d="M13 29.2C13 39.5 21.3 48 31.9 48c10.5 0 18.9-8.3 18.9-18.8h-9.5c0 5.2-3.9 9.4-9.2 9.4-5.2 0-9.2-4.2-9.2-9.4v-8.9H13v8.9zm30.6-14.7-2.1 9.1 9.2 2.4 2.4-9.1-9.5-2.4z"/>
</svg>
